<?xml version="1.0" standalone="no"?>
<!DOCTYPE svg PUBLIC "-//W3C//DTD SVG 20010904//EN"
 "http://www.w3.org/TR/2001/REC-SVG-20010904/DTD/svg10.dtd">
<svg version="1.0" xmlns="http://www.w3.org/2000/svg"
 width="512.000000pt" height="512.000000pt" viewBox="0 0 512.000000 512.000000"
 preserveAspectRatio="xMidYMid meet">

<g transform="translate(0.000000,512.000000) scale(0.100000,-0.100000)"
fill="#ffffff" stroke="none">
<path d="M0 2560 l0 -2560 1198 1 c762 1 1161 5 1097 10 -929 82 -1698 579
-1919 1240 -47 140 -61 233 -61 399 0 166 14 259 61 399 78 232 243 474 443
646 l88 77 6 196 c3 110 12 234 21 281 65 349 218 643 462 886 251 250 551
404 914 467 97 16 403 16 500 0 363 -64 666 -218 915 -468 245 -246 396 -536
461 -885 9 -47 18 -171 21 -281 l6 -197 75 -63 c41 -35 110 -103 154 -153 183
-208 292 -419 345 -668 24 -114 24 -362 0 -474 -115 -538 -534 -971 -1185
-1227 -207 -81 -526 -153 -777 -175 -63 -5 346 -9 1098 -10 l1197 -1 0 2560 0
2560 -462 0 -463 0 39 -23 c41 -23 76 -76 76 -115 0 -27 -119 -925 -124 -929
-1 -1 -31 36 -66 84 -162 219 -394 419 -639 551 l-73 40 43 25 c24 14 186 102
359 196 l314 171 -1564 0 -1565 -1 40 -21 c73 -37 630 -340 653 -355 23 -14
20 -16 -92 -81 -64 -37 -153 -94 -199 -127 -106 -78 -326 -297 -401 -402 -33
-46 -61 -81 -62 -80 -5 4 -124 902 -124 929 0 39 35 92 76 115 l39 23 -462 0
-463 0 0 -2560z"/>
<path d="M1788 3399 c-43 -22 -78 -81 -78 -129 0 -74 76 -150 149 -150 77 0
151 74 151 150 0 50 -35 107 -80 130 -49 25 -94 25 -142 -1z"/>
<path d="M3188 3399 c-43 -22 -78 -81 -78 -129 0 -74 76 -150 149 -150 77 0
151 74 151 150 0 50 -35 107 -80 130 -49 25 -94 25 -142 -1z"/>
<path d="M2055 2786 c-83 -21 -146 -57 -210 -121 -66 -65 -105 -135 -124 -223
-15 -74 -15 -1311 0 -1384 37 -171 176 -310 347 -347 72 -15 911 -15 984 0 77
16 180 74 232 129 53 56 99 144 115 218 15 74 15 1310 0 1384 -37 172 -176
311 -347 347 -77 16 -930 14 -997 -3z m975 -306 c26 -13 47 -34 60 -60 19 -37
20 -58 20 -430 l0 -390 -22 0 c-45 0 -149 30 -207 59 -32 17 -84 53 -115 81
l-56 52 0 144 c0 171 -13 210 -80 244 -51 26 -93 25 -142 -2 -67 -38 -78 -73
-78 -242 l0 -144 -56 -52 c-31 -28 -83 -64 -115 -81 -58 -29 -162 -59 -206
-59 l-23 0 0 390 c0 372 1 393 20 430 12 24 35 47 58 59 35 19 59 20 470 21
414 0 434 -1 472 -20z m-412 -1007 c108 -88 332 -172 460 -173 l32 0 0 -91 c0
-109 -22 -159 -82 -190 -35 -18 -65 -19 -469 -19 -428 0 -432 0 -471 22 -60
34 -78 78 -78 188 l0 90 33 0 c17 0 74 9 126 20 111 23 273 98 341 159 25 22
46 40 48 41 1 0 28 -21 60 -47z"/>
</g>
</svg>
